<?xml version="1.0" encoding="iso-8859-1"?>
<!-- Uploaded to: SVG Repo, www.svgrepo.com, Generator: SVG Repo Mixer Tools -->
<svg fill="#000000" version="1.1" id="Layer_1" xmlns="http://www.w3.org/2000/svg" xmlns:xlink="http://www.w3.org/1999/xlink" 
	 viewBox="0 0 501.673 501.673" xml:space="preserve">
<g>
	<g>
		<g>
			<path d="M434.344,240.004L224.456,449.892c-23.064,23.064-53.728,35.768-86.344,35.768C70.784,485.66,16,430.876,16,363.548
				c0-32.616,12.704-63.28,35.768-86.344L309.656,19.316L298.344,8.004L40.456,265.892C14.368,291.98,0,326.66,0,363.548
				c0,76.16,61.952,138.112,138.112,138.112c36.888,0,71.568-14.368,97.656-40.456l209.888-209.888L434.344,240.004z"/>
			<path d="M168,309.66c-17.648,0-32,14.352-32,32s14.352,32,32,32s32-14.352,32-32S185.648,309.66,168,309.66z M168,357.66
				c-8.824,0-16-7.176-16-16c0-8.824,7.176-16,16-16c8.824,0,16,7.176,16,16C184,350.484,176.824,357.66,168,357.66z"/>
			<path d="M120,389.66c-13.232,0-24,10.768-24,24s10.768,24,24,24s24-10.768,24-24S133.232,389.66,120,389.66z M120,421.66
				c-4.416,0-8-3.584-8-8c0-4.416,3.584-8,8-8s8,3.584,8,8C128,418.076,124.416,421.66,120,421.66z"/>
			
				<rect x="268.114" y="69.623" transform="matrix(-0.7071 0.7071 -0.7071 -0.7071 628.4706 -105.076)" width="135.767" height="16"/>
			
				<rect x="328.797" y="85.631" transform="matrix(-0.7071 0.7071 -0.7071 -0.7071 762.6933 -128.6568)" width="158.39" height="16"/>
			<rect x="476.706" y="5.669" transform="matrix(0.7071 -0.7071 0.7071 0.7071 133.2716 349.0843)" width="22.624" height="16"/>
			<path d="M426.344,152.004L237.008,341.34c-3.912-16.224-11.584-30.976-22.12-43.256l126.768-126.768l-11.312-11.312
				L203.576,286.772c-12.28-10.536-27.032-18.208-43.256-22.12l117.336-117.336l-11.312-11.312l-125.88,125.88
				c-1.496-0.064-2.96-0.224-4.464-0.224c-57.344,0-104,46.656-104,104s46.656,104,104,104s104-46.656,104-104
				c0-1.504-0.16-2.968-0.224-4.464l197.88-197.88L426.344,152.004z M63.696,315.628C68.92,320.108,72,326.58,72,333.66
				c0,13.096-10.552,23.736-23.592,23.96C49.824,342.116,55.264,327.772,63.696,315.628z M136,453.66
				c-45.84,0-83.552-35.24-87.6-80.04c21.872-0.224,39.6-18.04,39.6-39.96c0-11.944-5.24-22.84-14.08-30.304
				c13.176-13.128,30.512-22.024,49.808-24.736l-25.384,25.384l11.312,11.312l36.952-36.952C190.136,283.628,224,320.732,224,365.66
				C224,414.18,184.52,453.66,136,453.66z"/>
			
				<rect x="448.019" y="122.324" transform="matrix(-0.7071 -0.7071 0.7071 -0.7071 683.9773 550.5853)" width="16" height="22.624"/>
			<rect x="452.708" y="213.636" transform="matrix(-0.7071 0.7071 -0.7071 -0.7071 948.8525 50.245)" width="22.624" height="16"/>
			
				<rect x="183.997" y="394.345" transform="matrix(-0.7071 -0.7071 0.7071 -0.7071 40.9165 828.2613)" width="16" height="22.624"/>
			<rect x="288" y="485.66" width="16" height="16"/>
			<rect x="288" y="453.66" width="16" height="16"/>
			<rect x="304" y="469.66" width="16" height="16"/>
			<rect x="272" y="469.66" width="16" height="16"/>
			<rect x="448" y="437.66" width="16" height="16"/>
			<rect x="448" y="405.66" width="16" height="16"/>
			<rect x="464" y="421.66" width="16" height="16"/>
			<rect x="432" y="421.66" width="16" height="16"/>
			<rect x="32" y="181.66" width="16" height="16"/>
			<rect x="32" y="149.66" width="16" height="16"/>
			<rect x="48" y="165.66" width="16" height="16"/>
			<rect x="16" y="165.66" width="16" height="16"/>
			<rect x="80" y="37.66" width="16" height="16"/>
			<rect x="80" y="5.66" width="16" height="16"/>
			<rect x="96" y="21.66" width="16" height="16"/>
			<rect x="64" y="21.66" width="16" height="16"/>
			<rect x="432" y="317.66" width="16" height="16"/>
			<rect x="432" y="285.66" width="16" height="16"/>
			<rect x="448" y="301.66" width="16" height="16"/>
			<rect x="416" y="301.66" width="16" height="16"/>
		</g>
	</g>
</g>
</svg>